Coordinates
version=1
nRows=6
nColumns=36
inDegrees=yes

Units are S.I. units (second, meters, Newtons, ...)
If the header above contains a line with 'inDegrees', this indicates whether rotational values are in degrees (yes) or radians (no).

endheader
time	pelvis_tilt	pelvis_list	pelvis_rotation	pelvis_tx	pelvis_ty	pelvis_tz	hip_flexion_r	hip_adduction_r	hip_rotation_r	knee_angle_r	knee_angle_r_beta	ankle_angle_r	subtalar_angle_r	mtp_angle_r	hip_flexion_l	hip_adduction_l	hip_rotation_l	knee_angle_l	knee_angle_l_beta	ankle_angle_l	subtalar_angle_l	mtp_angle_l	lumbar_extension	lumbar_bending	lumbar_rotation	arm_flex_r	arm_add_r	arm_rot_r	elbow_flex_r	pro_sup_r	arm_flex_l	arm_add_l	arm_rot_l	elbow_flex_l	pro_sup_l
      6.48333330	    -35.00274498	      1.25997089	     -1.26946181	      0.22681686	      0.64196178	     -0.04409924	     95.26677274	    -18.34283114	     -2.60905472	     85.22525368	      1.48746128	     28.92670877	      5.47949803	     -7.49999987	     93.52406849	    -12.41216240	      1.78790977	     84.43871259	      1.47373355	     35.36618948	      5.52754107	     -7.49999987	    -28.31291499	      1.05156958	      7.52834770	     61.52044395	     -6.39767739	     70.35569954	    121.46143493	    103.26863876	     68.88635320	      3.10234952	     67.24164899	    114.11659598	    109.49209652
      6.50000000	    -34.74626618	      1.25349545	     -1.30033537	      0.22697512	      0.64861062	     -0.04429779	     94.14222095	    -18.38165267	     -2.92883812	     84.25272391	      1.47048744	     28.66195916	      5.34485894	     -7.49999987	     92.53265087	    -12.33487641	      1.70440254	     83.63454710	      1.45969822	     35.33367382	      5.51904481	     -7.49999987	    -28.33756070	      1.10375648	      7.46247773	     62.19732993	     -6.24841991	     70.99107904	    121.52687167	    102.38035624	     69.65962387	      3.00308842	     67.62977509	    113.49705491	    108.78219859
      6.51666670	    -34.66970293	      1.25016077	     -1.31586773	      0.22616632	      0.65301137	     -0.04458107	     93.25911173	    -18.39755897	     -3.21393482	     83.26760146	      1.45329381	     28.39375200	      5.27904292	     -7.49999987	     91.72101862	    -12.30062769	      1.55978486	     82.75623410	      1.44436876	     35.27152776	      5.62229303	     -7.49999987	    -27.87454428	      1.07290607	      7.26773433	     62.01179132	     -5.44812736	     70.97262480	    122.44173798	    101.15489125	     69.67454655	      3.06281586	     68.21829844	    114.67025801	    107.43158670
      6.53333330	    -34.67662006	      1.31657013	     -1.36916106	      0.23502188	      0.66036217	     -0.04717583	     92.11973067	    -18.35394165	     -3.50243219	     81.85973685	      1.42872193	     28.33454313	      5.30655286	     -7.49999987	     90.58009912	    -12.14477283	      1.40279756	     81.43944489	      1.42138645	     35.31950874	      5.67657754	     -7.49999987	    -27.03589454	      0.92838940	      7.04957987	     61.57767144	     -5.28267518	     71.33751230	    122.78147021	    101.21548332	     69.35283673	      3.42694099	     68.26752227	    115.12025311	    107.47063091
      6.55000000	    -33.66685505	      1.41977649	     -1.50916278	      0.24212159	      0.66501376	     -0.04314293	     89.66012156	    -18.17090418	     -3.68137263	     80.29871129	      1.40147690	     28.01446999	      5.05543305	     -7.49999987	     88.02699088	    -12.05391101	      1.19134539	     79.95586447	      1.39549309	     35.37553389	      5.75921484	     -7.49999987	    -27.05341803	      0.77420955	      7.22997826	     61.79200339	     -4.63752928	     73.42333734	    123.50621647	    101.85875146	     68.19987094	      3.42764678	     68.26479782	    116.47644062	    107.95250691
      6.56666670	    -33.22557596	      1.51978450	     -1.63551492	      0.24204508	      0.67801474	     -0.04292833	     87.68413085	    -17.87091833	     -3.78388098	     78.51379423	      1.37032422	     27.83581329	      5.18365417	     -7.49999987	     86.02944240	    -12.02510202	      0.89680977	     78.24894406	      1.36570171	     35.39219604	      6.15205672	     -7.49999987	    -26.49987027	      0.67919733	      6.95391127	     61.59500470	     -4.25540880	     73.89117299	    123.22588409	    103.87410800	     67.65190016	      3.09190037	     69.23408478	    116.58640340	    110.05070730
